<svg width="36" height="20" viewBox="0 0 36 20" fill="none" xmlns="http://www.w3.org/2000/svg">
<path fill-rule="evenodd" clip-rule="evenodd" d="M12.108 11.657L12.492 11.792L10.712 16.875H0V16.395L2.155 16.329V0.858988L0 0.792988V0.312988H5.714V0.792988L3.559 0.859988V16.373H7.323C10.282 16.373 11.189 13.935 12.108 11.658V11.657ZM16.334 8.87599C16.788 9.00799 17.239 9.13199 17.684 9.27099C18.691 9.58499 19.671 9.96299 20.573 10.516C21.353 10.994 22.022 11.582 22.471 12.386C22.824 13.018 22.987 13.7 23.011 14.416C23.064 15.929 22.524 17.215 21.44 18.264C20.292 19.374 18.902 19.958 17.29 19.998C16.394 20.02 15.523 19.888 14.697 19.527C14.303 19.354 13.942 19.131 13.678 18.784C13.426 18.453 13.345 18.087 13.532 17.702C13.722 17.309 14.065 17.129 14.496 17.087C14.776 17.06 14.971 17.135 15.139 17.389C15.527 17.978 15.953 18.542 16.448 19.051C16.575 19.182 16.714 19.302 16.85 19.425C17.007 19.568 17.2 19.609 17.407 19.609C18.145 19.607 18.859 19.485 19.514 19.132C20.557 18.569 21.334 17.734 21.608 16.606C21.83 15.692 21.846 14.539 21.412 13.556C21.102 12.854 20.541 12.255 19.92 11.813C19.079 11.215 18.072 10.765 17.09 10.464C16.624 10.322 15.598 10.022 15.555 10.009C15.619 9.76799 16.49 6.54499 16.954 4.81199C16.981 4.71199 17.024 4.68699 17.124 4.68699C18.692 4.68999 23.736 4.68899 23.736 4.68899L22.506 6.24699C22.443 6.32799 22.38 6.37499 22.276 6.37499C20.932 6.37099 17.729 6.37299 17.139 6.37099C17.064 6.37099 17.018 6.38099 16.995 6.46599C16.794 7.21199 16.334 8.87599 16.334 8.87599ZM28.39 14.915C28.39 14.915 31.02 14.922 32.683 14.912C33.0677 14.9056 33.4515 14.8739 33.832 14.817C34.24 14.76 34.556 14.536 34.758 14.185C34.918 13.908 35.048 13.639 35.178 13.346C35.233 13.221 35.308 13.186 35.443 13.186H35.603C35.269 14.356 34.98 15.396 34.646 16.563H25.297C25.342 16.502 29.262 13.617 30.148 12.795C30.971 12.032 32.095 11.104 32.552 10.076C32.863 9.37399 32.997 8.81199 32.942 8.04099C32.848 6.71599 32.085 5.60099 30.712 5.37399C29.172 5.11799 27.854 5.59799 26.95 6.90199C26.78 7.14599 26.628 7.39999 26.462 7.65899L26.214 7.52899C27.192 5.30499 28.736 4.06299 30.998 4.06299C33.253 4.06299 34.6 5.89099 34.6 7.66799C34.6 8.80999 34.098 9.65499 33.459 10.374C32.677 11.254 31.752 12.121 30.884 12.86C30.039 13.58 28.588 14.759 28.544 14.796L28.39 14.916V14.915Z" fill="white"/>
</svg>
